<svg xmlns="http://www.w3.org/2000/svg" xmlns:xlink="http://www.w3.org/1999/xlink" version="1.1" id="Layer_1" x="0px" y="0px" viewBox="0 0 100 100" enable-background="new 0 0 100 100" xml:space="preserve" height="100px" width="100px">
<g>
	<path d="M82.59,49.359h-6.329V5H23.739v44.359H17.41c-0.88,0-1.675,0.36-2.252,0.937c-0.577,0.577-0.937,1.372-0.937,2.252   c0,1.76,1.428,3.188,3.188,3.188h65.18c1.76,0,3.188-1.428,3.188-3.188S84.35,49.359,82.59,49.359z"/>
	<path d="M72.902,76.24c-2.405,5.093-6.321,8.407-10.744,8.407c-5.447,0-18.875,0-24.317,0c-4.422,0-8.338-3.314-10.744-8.407   c-1.045-1.55-1.821-3.52-2.219-5.742c-0.191,1.368-0.29,2.792-0.29,4.239C24.589,85.929,30.522,95,37.842,95   c5.442,0,18.87,0,24.317,0c7.319,0,13.252-9.071,13.252-20.262c0-1.447-0.103-2.871-0.295-4.239   C74.718,72.721,73.947,74.69,72.902,76.24z"/>
</g>
</svg>