<svg xmlns="http://www.w3.org/2000/svg" xmlns:xlink="http://www.w3.org/1999/xlink" version="1.1" id="Your_Icon" x="0px" y="0px" width="100px" height="100px" viewBox="0 0 100 100" enable-background="new 0 0 100 100" xml:space="preserve">
<path fill="#000000" d="M51.57,41.716c-3.57,0-6.475,2.904-6.475,6.475c0,1.117,0.291,2.22,0.843,3.19  c0.09,0.158,0.187,0.311,0.287,0.459c0.048,0.07,0.104,0.133,0.153,0.201l-4.05,4.053c-0.502,0.5-0.501,1.312,0,1.814  c0.25,0.25,0.579,0.375,0.907,0.375c0.329,0,0.657-0.125,0.907-0.375l4.144-4.146c0.119,0.07,0.237,0.139,0.38,0.213  c0.916,0.461,1.893,0.693,2.904,0.693c3.57,0,6.477-2.906,6.477-6.477C58.047,44.621,55.141,41.716,51.57,41.716z M51.57,52.102  c-0.607,0-1.197-0.141-1.74-0.414c-0.1-0.053-0.198-0.104-0.299-0.166c-0.474-0.291-0.873-0.672-1.189-1.133  c-0.062-0.089-0.121-0.182-0.174-0.275c-0.336-0.592-0.507-1.238-0.507-1.922c0-2.155,1.754-3.908,3.909-3.908  c2.156,0,3.91,1.753,3.91,3.908C55.48,50.347,53.727,52.102,51.57,52.102z"/>
</svg>